<?xml version="1.0" standalone="no"?>
<!DOCTYPE svg PUBLIC "-//W3C//DTD SVG 20010904//EN"
 "http://www.w3.org/TR/2001/REC-SVG-20010904/DTD/svg10.dtd">
<svg version="1.0" xmlns="http://www.w3.org/2000/svg"
 width="104.000000pt" height="209.000000pt" viewBox="0 0 104.000000 209.000000"
 preserveAspectRatio="xMidYMid meet">
<metadata>
Created by potrace 1.15, written by Peter Selinger 2001-2017
</metadata>
<g transform="translate(0.000000,209.000000) scale(0.100000,-0.100000)"
fill="#000000" stroke="none">
<path d="M0 2080 c0 -6 55 -10 146 -10 110 0 149 -3 159 -14 8 -7 12 -16 9
-19 -10 -9 97 -217 108 -211 6 4 8 1 6 -7 -6 -16 28 -89 41 -89 4 0 8 -6 8
-13 0 -13 70 -117 88 -129 5 -4 6 -8 2 -8 -5 0 6 -18 23 -40 17 -22 37 -37 42
-34 7 4 8 2 4 -5 -9 -13 12 -44 24 -36 4 3 7 -2 6 -9 -2 -20 165 -198 269
-287 l85 -74 0 -547 c0 -359 3 -548 10 -548 7 0 10 191 10 554 l0 553 -58 48
c-90 76 -264 257 -338 353 -126 162 -282 430 -315 542 l-12 40 -159 0 c-99 0
-158 -4 -158 -10z"/>
</g>
</svg>
