<?xml version="1.0" standalone="no"?>
<!DOCTYPE svg PUBLIC "-//W3C//DTD SVG 20010904//EN"
 "http://www.w3.org/TR/2001/REC-SVG-20010904/DTD/svg10.dtd">
<svg version="1.0" xmlns="http://www.w3.org/2000/svg"
 width="103.000000pt" height="232.000000pt" viewBox="0 0 103.000000 232.000000"
 preserveAspectRatio="xMidYMid meet">
<metadata>
Created by potrace 1.15, written by Peter Selinger 2001-2017
</metadata>
<g transform="translate(0.000000,232.000000) scale(0.100000,-0.100000)"
fill="#000000" stroke="none">
<path d="M667 2284 c-10 -19 -15 -40 -12 -45 4 -5 2 -9 -3 -9 -11 0 -44 -69
-37 -80 3 -4 1 -10 -5 -12 -5 -1 -19 -22 -32 -45 -53 -95 -92 -160 -115 -191
-13 -17 -21 -37 -18 -42 4 -6 2 -9 -3 -8 -5 2 -37 -34 -71 -80 -82 -108 -173
-206 -283 -306 l-90 -81 4 -682 c2 -436 7 -686 13 -692 7 -7 9 220 7 677 l-3
687 83 74 c151 136 276 284 403 480 69 107 178 318 172 335 -2 5 5 18 15 28
16 16 36 18 163 18 l145 0 0 -690 0 -689 -147 -4 -148 -3 148 -2 147 -2 0
-455 c0 -294 4 -455 10 -455 9 0 21 2226 12 2288 -3 22 -5 22 -171 22 l-167 0
-17 -36z"/>
</g>
</svg>
