<?xml version="1.0" standalone="no"?>
<!DOCTYPE svg PUBLIC "-//W3C//DTD SVG 20010904//EN"
 "http://www.w3.org/TR/2001/REC-SVG-20010904/DTD/svg10.dtd">
<svg version="1.0" xmlns="http://www.w3.org/2000/svg"
 width="800.000000pt" height="755.000000pt" viewBox="0 0 800.000000 755.000000"
 preserveAspectRatio="xMidYMid meet">
<metadata>
Created by potrace 1.15, written by Peter Selinger 2001-2017
</metadata>
<g transform="translate(0.000000,755.000000) scale(0.100000,-0.100000)"
fill="#000000" stroke="none">
<path d="M235 7533 l240 -3 -3 -1105 -2 -1105 -235 0 c-202 0 -235 -2 -235
-15 0 -13 33 -15 240 -15 168 0 240 -3 240 -11 0 -12 7 -28 75 -174 26 -55 51
-109 56 -120 21 -48 100 -187 153 -274 44 -70 61 -90 68 -80 8 11 9 10 4 -3
-7 -22 25 -80 41 -74 6 3 17 -3 25 -12 12 -15 11 -16 -4 -3 -10 7 -18 9 -18 4
0 -17 41 -64 50 -58 5 3 12 0 16 -6 4 -8 3 -9 -4 -5 -7 4 -12 3 -12 -3 0 -13
128 -175 143 -180 7 -3 6 3 -3 15 -14 18 -14 18 2 5 10 -7 16 -17 13 -21 -9
-14 7 -41 20 -36 7 2 21 -5 32 -17 l18 -22 -23 19 c-12 11 -22 15 -22 9 0 -15
56 -64 64 -56 4 4 5 1 2 -7 -7 -18 130 -164 145 -154 16 10 50 -27 43 -48 -3
-10 -1 -18 3 -18 5 0 28 -18 50 -41 32 -31 45 -39 58 -31 15 8 15 11 2 23 -48
47 -79 69 -89 63 -7 -5 -8 -3 -3 5 9 16 -44 73 -63 66 -7 -2 -10 0 -7 5 4 6 0
16 -7 24 -102 106 -263 294 -333 391 -89 123 -107 145 -115 140 -5 -3 -7 1 -4
9 5 13 -19 62 -37 76 -3 3 -30 47 -59 98 -39 68 -56 90 -62 80 -8 -10 -9 -9
-5 4 7 20 -30 101 -43 93 -5 -3 -12 0 -16 6 -4 8 -3 9 4 5 21 -12 13 10 -33
103 -25 50 -45 94 -45 98 0 4 -12 31 -25 58 -24 49 -25 56 -25 283 l0 232
1095 0 c723 0 1095 -3 1095 -10 0 -5 -11 -10 -25 -10 -16 0 -25 -6 -25 -15 0
-9 9 -15 25 -15 l25 0 -2 -232 -3 -233 -22 -3 c-33 -5 -31 -42 2 -42 l25 0 0
-322 c0 -178 -4 -328 -8 -335 -4 -6 -48 -41 -97 -77 -50 -37 -109 -81 -131
-99 -23 -18 -52 -39 -64 -47 -18 -12 -140 -106 -200 -153 -8 -7 -28 -21 -45
-31 -16 -11 -39 -28 -50 -39 -11 -10 -42 -34 -70 -53 -27 -18 -62 -44 -77 -56
-14 -13 -36 -30 -48 -38 -47 -32 -154 -114 -171 -131 -11 -11 -23 -19 -27 -19
-5 0 -17 -8 -28 -19 -20 -18 -22 -17 -101 50 -55 47 -87 67 -98 63 -14 -6 -13
-9 6 -30 13 -13 30 -23 38 -22 9 2 15 -3 14 -12 -1 -8 18 -30 42 -47 49 -37
64 -42 44 -15 -12 15 -12 15 1 5 13 -10 15 -225 12 -1847 l-2 -1836 -823 -2
-822 -3 820 -2 c526 -2 823 -7 829 -13 7 -7 -269 -10 -819 -10 -455 0 -826 -2
-823 -5 3 -3 1793 -6 3979 -8 2186 -1 3569 -4 3074 -7 l-900 -5 902 -3 c496
-1 908 1 917 4 15 6 16 346 16 3760 l0 3754 -3997 -2 c-2199 -2 -3890 -4
-3758 -5z m1955 -38 c0 -24 5 -35 15 -35 10 0 15 11 15 35 l0 35 240 0 240 0
-2 -552 -3 -553 -22 -3 c-13 -2 -23 -10 -23 -17 0 -7 10 -15 23 -17 20 -3 22
-8 22 -73 0 -66 -1 -70 -22 -69 -16 0 -23 -5 -23 -18 0 -13 7 -18 25 -18 l25
0 -2 -217 -3 -218 -1092 -3 -1093 -2 0 880 0 880 840 0 840 0 0 -35z m830
-845 l0 -881 -142 3 -143 3 -3 878 -2 877 145 0 145 0 0 -880z m17 -438 c-1
-240 -2 -41 -2 443 0 484 1 681 2 437 2 -244 2 -640 0 -880z m1863 438 l0
-880 -925 0 -925 0 0 880 0 880 925 0 925 0 0 -880z m17 -438 c-1 -240 -2 -41
-2 443 0 484 1 681 2 437 2 -244 2 -640 0 -880z m303 438 l0 -880 -145 0 -145
0 0 880 0 880 145 0 145 0 0 -880z m510 845 c0 -24 5 -35 15 -35 10 0 15 11
15 35 l0 35 840 0 840 0 1 -447 c1 -247 2 -641 3 -878 l1 -430 -1092 -3 -1093
-2 0 220 c0 213 1 220 20 220 11 0 20 7 20 15 0 8 -9 15 -20 15 -18 0 -20 7
-20 75 0 68 2 75 20 75 11 0 20 7 20 15 0 8 -9 15 -20 15 -20 0 -20 7 -20 555
l0 555 235 0 235 0 0 -35z m2220 -1075 l0 -1110 -235 0 -235 0 0 1110 0 1110
235 0 235 0 0 -1110z m-4930 -1270 l0 -600 -145 0 -145 0 0 600 0 600 145 0
145 0 0 -600z m1879 113 c-1 -269 -4 -478 -6 -465 -2 12 -11 22 -20 22 -16 0
-16 0 6 -84 5 -21 13 -72 16 -113 l7 -73 -925 0 -926 0 -1 600 -1 600 926 0
925 0 -1 -487z m321 -113 l0 -600 -145 0 -145 0 0 600 0 600 145 0 145 0 0
-600z m2220 578 c1 -13 0 -115 0 -227 -1 -177 -3 -211 -19 -247 -15 -32 -16
-45 -7 -54 8 -10 8 -11 -2 -6 -8 5 -24 -19 -52 -79 -38 -83 -52 -127 -29 -95
9 13 10 13 6 0 -2 -8 -10 -14 -18 -13 -8 1 -27 -25 -47 -65 -46 -96 -102 -189
-199 -334 -51 -76 -82 -132 -77 -139 4 -7 3 -9 -2 -6 -14 8 -24 -1 -72 -66
-52 -70 -158 -194 -225 -264 -27 -28 -47 -55 -44 -60 4 -6 -8 -23 -26 -39 -23
-21 -26 -23 -12 -5 34 41 0 19 -67 -44 -35 -33 -83 -77 -106 -98 -25 -21 -40
-42 -36 -49 4 -7 3 -8 -5 -4 -13 8 -88 -52 -83 -67 1 -5 -2 -6 -7 -3 -5 4 -12
2 -15 -3 -9 -14 25 -23 41 -10 11 10 11 14 1 21 -8 6 -4 7 11 3 19 -6 23 -4
18 8 -3 9 2 21 11 29 15 12 16 11 3 -4 -21 -28 1 -20 37 13 18 16 30 34 26 41
-5 7 -3 8 5 4 14 -9 53 22 45 36 -3 4 0 7 8 6 7 -2 12 2 11 9 -2 7 3 10 11 7
20 -8 318 305 311 327 -3 10 -1 20 4 24 7 4 8 -1 5 -12 -3 -10 15 5 40 32 46
50 61 79 29 54 -16 -11 -16 -11 -5 1 7 8 18 15 24 15 6 0 13 6 16 14 3 9 0 11
-8 6 -9 -5 -11 -4 -6 4 4 6 11 9 16 6 9 -6 39 31 119 143 49 69 64 101 39 86
-7 -4 -8 -3 -4 5 4 6 11 9 16 6 4 -3 15 6 24 20 19 29 20 39 4 29 -7 -4 -8 -3
-4 5 4 6 11 9 16 6 7 -5 56 72 136 215 20 35 97 195 123 255 13 28 27 58 32
67 5 10 9 25 9 33 0 13 34 15 258 14 141 0 251 -3 245 -6 -10 -4 -13 -233 -13
-1099 l0 -1094 -235 0 c-202 0 -235 -2 -235 -15 0 -13 33 -15 235 -15 l235 0
0 -1485 0 -1485 -895 0 -895 0 0 1770 c0 1594 2 1771 16 1777 8 3 13 11 10 19
-6 16 19 38 34 29 6 -4 18 -1 26 6 12 10 12 14 2 21 -9 6 -6 7 8 4 13 -4 27 0
38 13 16 17 16 19 0 25 -11 4 -31 -6 -58 -27 -22 -19 -52 -40 -65 -47 -19 -9
-21 -14 -10 -21 10 -6 10 -9 2 -9 -7 0 -213 200 -457 444 l-445 444 -3 331 -3
331 23 0 c15 0 22 6 22 20 0 13 -7 20 -20 20 -19 0 -19 9 -22 235 l-3 235 23
0 c13 0 22 6 22 15 0 8 -9 15 -20 15 -11 0 -20 5 -20 10 0 7 370 10 1090 10
l1090 0 0 -22z m-4425 -1290 c17 -186 89 -364 206 -513 52 -67 128 -141 174
-171 17 -10 36 -25 44 -32 29 -28 132 -73 154 -67 17 5 19 4 7 -4 -12 -8 -9
-12 15 -21 209 -81 460 -90 655 -24 91 31 247 115 296 159 7 5 35 30 63 54
103 88 221 274 258 405 34 122 42 165 43 224 l0 62 156 0 155 0 439 -438 c336
-336 437 -441 428 -450 -7 -7 -8 -12 -4 -12 5 0 2 -7 -5 -16 -12 -15 -11 -16
9 -10 l22 7 0 -1755 0 -1756 -600 0 -600 0 0 63 c0 34 -5 80 -10 102 -22 85
-42 151 -56 182 -8 17 -14 34 -14 37 0 3 -26 48 -57 98 -157 254 -414 417
-706 449 -247 26 -464 -27 -667 -164 -50 -34 -192 -173 -232 -228 -92 -125
-155 -299 -174 -476 l-7 -63 -668 0 -669 0 0 1810 c0 1267 3 1810 11 1810 5 0
7 5 3 12 -4 7 -3 8 5 4 6 -4 8 -12 5 -18 -4 -6 0 -14 7 -19 20 -12 31 -11 23
3 -4 7 -3 8 5 4 6 -4 9 -11 6 -16 -9 -15 60 -61 81 -54 13 4 15 3 6 -3 -17
-13 9 -36 31 -27 8 3 18 1 22 -5 3 -7 0 -8 -9 -5 -80 31 190 -139 358 -226 45
-23 60 -25 50 -8 -4 7 -3 8 5 4 6 -4 9 -11 6 -16 -3 -5 25 -23 62 -41 38 -17
76 -36 86 -41 10 -5 28 -6 40 -3 16 4 18 4 8 -3 -8 -6 -9 -12 -3 -16 6 -3 13
-2 17 4 3 5 12 10 18 10 7 0 6 -4 -3 -10 -12 -7 -10 -11 10 -18 14 -6 50 -20
80 -32 97 -39 310 -111 340 -115 8 -1 22 -4 30 -7 61 -20 91 -28 130 -33 25
-4 61 -13 80 -20 30 -11 78 -20 165 -31 11 -1 49 -7 85 -14 229 -41 826 -42
1085 0 39 6 81 12 95 14 73 9 127 20 143 28 10 5 34 11 55 14 63 8 156 36 168
51 9 10 13 11 16 2 3 -8 49 4 143 35 77 26 149 50 160 55 11 5 47 20 80 33 36
15 59 30 57 38 -2 10 0 11 10 3 9 -8 24 -6 53 8 22 10 51 23 65 29 14 5 32 14
40 19 8 5 51 27 95 49 159 77 258 139 249 154 -4 6 -3 8 4 4 16 -9 84 26 78
41 -3 7 0 15 6 19 7 4 8 3 4 -4 -12 -19 13 -14 36 8 12 11 18 20 14 20 -5 0
-3 7 4 15 7 8 10 15 6 15 -15 0 -245 -153 -241 -161 3 -4 0 -11 -6 -15 -8 -4
-9 -3 -5 4 4 7 1 12 -9 12 -11 0 -15 -5 -12 -15 4 -8 1 -17 -5 -21 -7 -4 -8
-3 -4 4 9 15 -9 15 -35 1 -11 -5 -17 -14 -14 -19 3 -5 0 -12 -6 -16 -8 -4 -9
-3 -5 4 4 7 1 12 -9 12 -12 0 -15 -5 -11 -16 5 -13 3 -14 -7 -6 -9 8 -21 5
-45 -10 -34 -21 -43 -34 -16 -24 9 3 12 2 9 -5 -4 -5 -15 -7 -26 -4 -12 4 -50
-8 -102 -33 -45 -21 -98 -45 -117 -52 -19 -7 -39 -17 -44 -22 -6 -4 -16 -8
-24 -8 -8 0 -28 -6 -45 -14 -18 -8 -65 -26 -105 -42 -48 -18 -68 -30 -60 -36
7 -4 8 -8 2 -8 -5 0 -15 5 -20 10 -8 8 -20 7 -40 -1 -16 -6 -38 -15 -49 -20
-25 -10 -129 -37 -215 -55 -36 -8 -85 -19 -110 -24 -25 -6 -56 -12 -70 -14
-14 -1 -54 -8 -90 -14 -36 -7 -83 -15 -105 -19 l-40 -6 30 -8 c21 -6 15 -7
-20 -3 -27 3 -77 4 -110 2 -76 -4 -597 -4 -690 0 -38 2 -90 7 -115 12 -54 11
-177 32 -205 36 -11 1 -40 7 -65 12 -25 6 -79 17 -120 25 -41 8 -95 22 -120
31 -25 9 -53 16 -63 16 -9 0 -25 4 -35 10 -9 5 -46 18 -82 29 -85 25 -223 76
-280 103 -25 12 -60 21 -77 22 -18 0 -28 3 -22 6 6 4 -40 31 -101 61 -61 30
-113 52 -116 48 -2 -4 1 -10 6 -12 6 -3 5 -4 -2 -3 -7 2 -12 10 -10 20 2 9 -4
16 -13 16 -10 0 -13 -5 -9 -12 4 -7 3 -8 -5 -4 -6 4 -9 11 -6 16 8 13 -33 33
-52 26 -17 -7 -46 12 -38 24 3 5 -12 19 -32 31 -21 13 -75 47 -121 76 -45 30
-87 51 -94 47 -6 -4 -8 -3 -5 3 4 5 -30 36 -73 67 -44 31 -80 60 -80 64 0 4
22 21 48 39 26 18 58 43 72 56 14 13 39 32 55 42 26 17 216 157 252 186 7 5
61 46 120 91 60 44 110 84 113 88 3 3 28 21 55 40 53 36 117 84 149 113 11 9
23 17 28 17 4 0 25 15 45 34 69 61 84 65 239 66 l142 0 7 -72z m1872 -18 c-3
-49 -11 -107 -17 -127 -56 -178 -126 -298 -239 -412 -97 -97 -114 -110 -217
-167 -66 -37 -113 -54 -254 -96 -60 -18 -297 -17 -375 1 -148 34 -280 97 -392
188 -24 19 -48 31 -54 27 -8 -4 -9 -3 -5 5 5 7 -4 23 -22 39 -82 75 -178 238
-221 373 -16 50 -40 200 -41 252 0 4 415 7 921 7 l922 0 -6 -90z m-751 -3455
c395 -68 720 -416 751 -803 l6 -82 -281 0 -280 0 -10 32 c-6 18 -13 46 -17 61
-3 16 -16 45 -29 65 -119 188 -367 228 -536 86 -53 -45 -120 -171 -120 -226 0
-17 -19 -18 -282 -18 l-281 0 6 93 c7 109 18 146 70 258 15 31 27 59 27 62 0
10 53 90 86 132 34 43 143 150 176 174 100 71 255 140 358 160 30 6 64 13 75
15 50 9 200 5 281 -9z m-31 -624 c88 -40 153 -125 168 -219 l7 -42 -311 0
c-266 0 -310 2 -306 14 3 8 11 34 17 57 6 23 17 51 23 62 39 68 124 132 193
146 63 13 158 4 209 -18z m3861 -278 c0 -17 -49 -18 -903 -15 -594 1 -903 6
-903 12 0 7 305 10 896 10 494 0 899 2 902 5 8 7 8 7 8 -12z m-4956 -3 c0 -6
-243 -10 -671 -10 -450 0 -668 3 -664 10 9 14 1335 13 1335 0z m3120 0 c0 -7
-205 -10 -595 -10 -390 0 -595 3 -595 10 0 7 205 10 595 10 390 0 595 -3 595
-10z"/>
<path d="M3500 6900 c0 -6 80 -10 220 -10 l220 0 0 -28 c0 -20 -8 -32 -31 -46
-51 -30 -75 -117 -47 -169 6 -12 22 -33 36 -46 22 -20 33 -23 82 -19 38 3 63
10 77 24 64 61 56 168 -17 211 -22 13 -30 25 -30 45 l0 28 219 0 c136 0 222 4
226 10 4 7 -157 10 -474 10 -314 0 -481 -3 -481 -10z m553 -121 c21 -23 27
-39 27 -73 0 -37 -6 -50 -35 -80 -46 -47 -89 -49 -139 -5 -44 38 -54 83 -31
132 33 71 123 84 178 26z"/>
<path d="M3331 6783 c0 -112 6 -164 27 -258 18 -84 121 -253 144 -239 7 4 8 2
4 -4 -7 -12 19 -43 68 -79 33 -25 51 -30 40 -10 -4 7 -3 9 2 4 5 -5 9 -13 9
-19 0 -15 85 -60 101 -54 8 3 13 0 11 -6 -4 -23 183 -58 278 -51 79 6 174 31
243 65 61 30 84 48 63 48 -5 0 -13 -4 -16 -10 -3 -5 -11 -10 -18 -10 -6 0 -2
7 10 15 12 8 28 13 36 10 7 -3 20 1 27 10 7 8 9 15 4 15 -4 0 7 16 26 35 47
48 25 44 -30 -6 -25 -23 -72 -54 -104 -71 -45 -23 -56 -32 -45 -40 10 -7 8 -8
-8 -3 -12 3 -48 -1 -81 -10 -78 -20 -228 -19 -300 1 -79 22 -156 61 -214 106
-27 22 -53 36 -58 33 -6 -4 -7 1 -3 11 5 13 3 16 -10 11 -10 -4 -14 -2 -12 6
3 7 -11 30 -30 52 -20 22 -49 68 -65 101 -50 101 -61 163 -61 322 1 136 0 142
-19 142 -19 0 -20 -6 -19 -117z"/>
<path d="M4580 6756 c0 -80 -5 -157 -11 -175 -9 -24 -9 -35 0 -44 6 -6 11 -16
11 -21 0 -6 -4 -5 -9 3 -7 11 -16 0 -35 -43 -29 -65 -32 -81 -13 -70 7 4 9 3
4 -2 -5 -5 -14 -9 -19 -9 -6 0 -13 -6 -16 -14 -3 -9 0 -11 8 -6 9 5 11 4 6 -4
-4 -6 -11 -9 -16 -6 -10 6 -75 -74 -66 -82 3 -4 -8 -22 -26 -40 -17 -18 -27
-33 -22 -33 12 0 94 82 94 94 0 5 -10 1 -22 -10 l-22 -19 20 27 c10 14 21 22
22 17 7 -18 24 -9 19 10 -3 12 0 18 7 15 18 -7 95 151 103 211 15 110 22 184
22 258 1 81 0 87 -19 87 -19 0 -20 -7 -20 -144z"/>
</g>
</svg>
