<?xml version="1.0" standalone="no"?>
<!DOCTYPE svg PUBLIC "-//W3C//DTD SVG 20010904//EN"
 "http://www.w3.org/TR/2001/REC-SVG-20010904/DTD/svg10.dtd">
<svg version="1.0" xmlns="http://www.w3.org/2000/svg"
 width="593.000000pt" height="558.000000pt" viewBox="0 0 593.000000 558.000000"
 preserveAspectRatio="xMidYMid meet">
<metadata>
Created by potrace 1.15, written by Peter Selinger 2001-2017
</metadata>
<g transform="translate(0.000000,558.000000) scale(0.100000,-0.100000)"
fill="#000000" stroke="none">
<path d="M1093 5553 l-1053 -3 0 -2755 0 -2755 2781 0 c2396 0 2782 2 2795 14
12 13 14 391 14 2740 0 1811 -3 2726 -10 2726 -5 0 -10 7 -10 15 0 13 -86 15
-713 15 -393 0 -1172 2 -1733 3 -560 2 -1493 2 -2071 0z m-571 -603 c2 -396 6
-553 14 -558 7 -4 15 -49 19 -99 4 -51 11 -93 15 -93 5 0 12 -31 16 -70 3 -38
11 -70 15 -70 5 0 9 -9 9 -20 0 -11 6 -20 14 -20 10 0 16 -19 21 -60 4 -33 11
-60 15 -60 4 0 11 -22 15 -50 4 -27 11 -50 15 -50 5 0 12 -20 16 -45 3 -25 10
-45 15 -45 5 0 9 -7 9 -15 0 -8 6 -15 14 -15 8 0 15 -16 19 -41 3 -23 10 -45
15 -48 5 -3 12 -23 16 -43 4 -21 11 -38 16 -38 4 0 11 -13 15 -30 4 -16 11
-30 16 -30 5 0 9 -7 9 -15 0 -8 6 -15 14 -15 8 0 16 -16 20 -39 3 -21 13 -41
21 -45 8 -3 15 -16 15 -30 0 -13 7 -26 15 -30 8 -3 15 -17 15 -30 0 -19 7 -27
25 -32 14 -3 25 -12 25 -19 0 -8 6 -20 13 -27 8 -7 20 -30 26 -51 7 -20 16
-37 21 -37 5 0 11 -13 15 -29 4 -20 14 -31 30 -35 15 -4 27 -16 31 -30 3 -14
12 -27 20 -30 8 -3 14 -12 14 -21 0 -8 5 -15 10 -15 6 0 10 -9 10 -20 0 -11 8
-24 18 -27 21 -8 72 -58 72 -71 0 -19 47 -62 67 -62 13 0 24 -8 28 -21 8 -24
60 -79 75 -79 5 0 10 -5 10 -10 0 -15 50 -60 66 -60 8 0 16 -11 20 -24 4 -18
15 -26 40 -30 19 -4 34 -11 34 -16 0 -5 11 -12 25 -16 14 -3 25 -12 25 -20 0
-8 7 -14 15 -14 8 0 15 -4 15 -9 0 -5 14 -12 30 -16 17 -4 30 -11 30 -16 0 -5
7 -9 15 -9 8 0 15 -4 15 -10 0 -5 7 -10 15 -10 8 0 15 -6 15 -14 0 -8 15 -17
35 -20 19 -4 35 -11 35 -15 0 -5 20 -12 45 -15 29 -5 45 -12 45 -22 0 -8 7
-14 15 -14 8 0 15 -4 15 -9 0 -5 23 -11 50 -15 27 -4 50 -11 50 -15 0 -5 27
-12 60 -16 41 -5 60 -11 60 -21 0 -10 13 -14 45 -14 25 0 45 -4 45 -10 0 -5
20 -10 44 -10 24 0 46 -5 48 -11 2 -6 62 -13 156 -16 83 -3 152 -10 152 -15 0
-4 52 -8 115 -8 63 0 115 4 115 8 0 5 64 12 142 15 81 4 144 11 146 17 2 5 24
10 48 10 24 0 44 5 44 10 0 6 18 10 40 10 27 0 40 4 40 14 0 9 19 16 60 20 33
4 60 11 60 16 0 5 22 12 50 16 27 4 50 10 50 15 0 5 9 9 20 9 11 0 20 6 20 14
0 8 16 16 39 20 22 3 41 11 43 17 2 5 22 13 45 16 33 4 43 10 47 29 4 13 13
24 21 24 8 0 15 4 15 10 0 5 18 13 40 16 31 5 42 12 46 29 3 14 16 26 30 29
13 4 24 11 24 16 0 5 16 12 35 16 19 3 35 11 35 16 0 13 21 33 43 41 9 3 17
11 17 16 0 5 9 13 20 16 11 3 20 13 20 21 0 8 5 14 10 14 15 0 67 55 75 79 3
12 14 21 23 21 19 0 62 46 62 67 0 7 4 13 10 13 5 0 12 11 16 24 3 15 15 27
30 30 14 4 24 14 24 24 0 10 13 29 29 43 15 14 31 35 35 47 4 12 14 22 22 22
8 0 14 6 14 14 0 8 7 16 15 20 8 3 15 12 15 21 0 8 4 15 10 15 5 0 12 11 16
25 3 14 10 25 14 25 4 0 11 11 14 25 4 14 13 25 21 25 8 0 15 7 15 15 0 8 5
15 10 15 6 0 10 9 10 19 0 11 6 26 14 34 8 7 20 33 27 56 8 29 19 43 34 47 17
4 24 15 29 45 3 21 11 39 16 39 5 0 13 18 16 40 4 22 10 40 15 40 4 0 11 16
15 35 3 19 10 35 15 35 5 0 9 7 9 15 0 8 6 15 14 15 9 0 16 17 21 50 4 28 10
50 15 50 4 0 11 16 14 35 4 19 11 35 16 35 4 0 12 29 15 65 4 36 11 65 16 65
5 0 9 7 9 15 0 8 6 15 14 15 9 0 16 18 20 50 4 28 11 50 15 50 5 0 12 35 16
78 4 42 11 79 16 82 4 3 11 43 15 88 4 45 11 82 15 82 5 0 9 29 9 65 0 48 4
65 13 65 19 0 27 203 27 642 l0 338 215 0 215 0 -2 -2702 -3 -2703 -1035 0
-1035 0 -3 68 c-2 37 -7 67 -12 67 -6 0 -10 14 -10 30 0 19 -5 30 -14 30 -8 0
-15 16 -19 41 -3 23 -10 45 -15 48 -5 3 -13 21 -17 38 -3 18 -10 33 -15 33 -4
0 -11 16 -14 35 -5 26 -13 36 -32 41 -15 4 -27 16 -31 33 -7 27 -25 51 -40 51
-5 0 -16 9 -26 20 -9 11 -23 20 -31 20 -8 0 -17 11 -20 25 -4 14 -13 25 -21
25 -8 0 -15 4 -15 10 0 5 -16 12 -35 16 -20 3 -35 12 -35 20 0 8 -7 14 -15 14
-8 0 -15 4 -15 10 0 5 -27 12 -60 16 -33 4 -60 11 -60 15 0 13 -258 11 -262
-1 -2 -6 -27 -13 -56 -17 -28 -3 -52 -10 -52 -14 0 -5 -7 -9 -15 -9 -8 0 -15
-6 -15 -14 0 -8 -16 -16 -39 -20 -27 -4 -42 -12 -46 -26 -3 -11 -13 -20 -21
-20 -8 0 -14 -6 -14 -14 0 -8 -10 -18 -22 -21 -23 -8 -68 -52 -68 -67 0 -13
-51 -58 -66 -58 -7 0 -16 -16 -20 -35 -3 -19 -10 -35 -14 -35 -5 0 -12 -15
-15 -33 -4 -17 -12 -35 -17 -38 -5 -3 -12 -25 -15 -48 -3 -22 -10 -41 -14 -41
-5 0 -9 -18 -9 -40 0 -29 -4 -40 -15 -40 -12 0 -15 -13 -15 -60 l0 -60 -1035
0 -1035 0 0 2705 0 2705 224 0 225 0 3 -550z m1618 -547 c0 -604 0 -1131 0
-1170 0 -58 3 -73 15 -73 10 0 15 -10 15 -30 0 -16 4 -30 9 -30 4 0 11 -19 14
-41 3 -23 10 -45 15 -48 5 -3 12 -23 16 -43 4 -21 11 -38 16 -38 6 0 10 -11
10 -25 0 -15 7 -28 18 -32 25 -10 40 -27 48 -57 3 -14 10 -26 14 -26 5 0 12
-9 15 -20 3 -11 18 -23 33 -27 28 -7 52 -25 52 -40 0 -11 37 -43 50 -43 6 0
10 -4 10 -10 0 -5 9 -10 20 -10 11 0 20 -7 20 -15 0 -8 15 -17 38 -21 20 -4
40 -11 43 -15 3 -5 47 -12 97 -15 51 -4 92 -11 92 -15 0 -5 9 -9 20 -9 11 0
20 4 20 9 0 4 44 11 97 15 54 4 100 11 103 16 3 5 25 12 48 16 23 4 42 11 42
16 0 12 41 52 63 61 9 3 17 13 17 22 0 8 7 15 15 15 8 0 15 4 15 9 0 5 11 12
24 15 14 3 28 15 31 26 3 11 10 20 15 20 4 0 11 11 14 25 4 14 13 25 21 25 8
0 15 6 15 14 0 8 7 16 15 20 8 3 15 15 15 26 0 11 4 20 9 20 5 0 13 15 16 33
4 17 12 35 17 38 5 3 12 25 15 48 4 25 11 41 19 41 10 0 14 13 14 39 0 23 5
41 13 43 9 4 13 249 15 1171 l3 1167 800 0 799 0 0 -395 c0 -217 -4 -395 -8
-395 -5 0 -12 -70 -15 -157 -3 -86 -10 -159 -15 -162 -5 -3 -12 -42 -16 -86
-4 -44 -11 -82 -15 -85 -5 -3 -12 -35 -15 -72 -6 -49 -12 -68 -22 -68 -9 0
-14 -11 -14 -30 0 -16 -4 -30 -9 -30 -5 0 -12 -20 -15 -45 -4 -25 -11 -45 -15
-45 -5 0 -12 -29 -16 -65 -3 -36 -11 -65 -15 -65 -5 0 -12 -16 -16 -35 -3 -20
-12 -35 -20 -35 -8 0 -14 -10 -14 -25 0 -14 -4 -25 -9 -25 -5 0 -11 -18 -15
-40 -3 -22 -10 -40 -15 -40 -5 0 -12 -16 -15 -35 -4 -19 -11 -35 -15 -35 -5 0
-11 -18 -15 -39 -4 -30 -11 -40 -30 -45 -18 -4 -25 -15 -30 -45 -3 -22 -12
-46 -19 -53 -8 -7 -17 -26 -21 -41 -3 -15 -11 -27 -16 -27 -6 0 -10 -7 -10
-15 0 -8 -7 -15 -15 -15 -8 0 -15 -9 -15 -20 0 -11 -9 -28 -20 -37 -11 -10
-20 -26 -20 -37 0 -10 -11 -29 -25 -42 -14 -13 -25 -32 -25 -44 0 -11 -5 -20
-11 -20 -18 0 -59 -43 -59 -63 0 -21 -46 -67 -66 -67 -8 0 -14 -8 -14 -18 0
-10 -14 -30 -30 -44 -17 -15 -35 -41 -41 -57 -6 -17 -17 -31 -25 -31 -8 0 -14
-5 -14 -10 0 -6 -8 -14 -17 -17 -21 -8 -43 -28 -43 -39 0 -10 -58 -64 -70 -64
-5 0 -10 -4 -10 -10 0 -17 -38 -49 -65 -56 -14 -3 -25 -10 -25 -15 0 -5 -7 -9
-15 -9 -8 0 -15 -7 -15 -15 0 -8 -11 -17 -25 -21 -14 -3 -25 -10 -25 -14 0 -4
-13 -10 -30 -13 -18 -4 -30 -13 -30 -22 0 -8 -7 -15 -15 -15 -8 0 -15 -4 -15
-10 0 -5 -16 -12 -35 -16 -19 -3 -35 -10 -35 -15 0 -5 -7 -9 -15 -9 -8 0 -15
-4 -15 -10 0 -5 -7 -10 -15 -10 -8 0 -15 -6 -15 -14 0 -14 -29 -26 -67 -26
-12 0 -23 -5 -25 -11 -2 -5 -22 -13 -46 -16 -26 -3 -42 -11 -42 -19 0 -8 -9
-14 -20 -14 -11 0 -20 -4 -20 -10 0 -5 -27 -12 -60 -16 -33 -4 -60 -10 -60
-14 0 -4 -34 -11 -75 -15 -55 -5 -75 -11 -75 -21 0 -10 -15 -14 -60 -14 -33 0
-60 -4 -60 -10 0 -6 -53 -10 -140 -10 -87 0 -140 -4 -140 -10 0 -5 -18 -10
-40 -10 -22 0 -40 5 -40 10 0 6 -53 10 -140 10 -87 0 -140 4 -140 10 0 6 -20
10 -45 10 -31 0 -45 4 -45 14 0 10 -24 15 -90 20 -49 4 -90 11 -90 16 0 4 -27
11 -60 15 -33 4 -60 11 -60 16 0 5 -9 9 -20 9 -11 0 -20 6 -20 14 0 8 -16 15
-41 19 -23 3 -45 10 -48 16 -4 5 -26 13 -49 17 -26 4 -42 12 -42 20 0 8 -7 14
-15 14 -8 0 -15 5 -15 10 0 6 -7 10 -15 10 -8 0 -15 4 -15 9 0 5 -16 12 -35
15 -19 4 -35 11 -35 16 0 6 -7 10 -15 10 -8 0 -15 7 -15 15 0 9 -12 18 -30 22
-16 3 -30 9 -30 13 0 4 -11 11 -25 14 -14 4 -25 13 -25 21 0 8 -6 15 -14 15
-8 0 -16 7 -20 15 -3 8 -12 15 -21 15 -19 0 -55 31 -55 47 0 7 -5 13 -10 13
-12 0 -70 54 -70 64 0 11 -27 36 -38 36 -5 0 -18 11 -28 25 -10 14 -24 25 -31
25 -7 0 -13 7 -13 15 0 8 -16 29 -35 48 -19 19 -35 41 -35 50 0 9 -9 19 -21
22 -28 9 -55 37 -64 67 -4 12 -18 33 -31 45 -13 12 -24 27 -24 33 0 5 -7 10
-15 10 -8 0 -15 6 -15 14 0 8 -6 21 -13 28 -8 7 -20 30 -26 51 -7 20 -16 37
-21 37 -4 0 -10 14 -13 30 -4 18 -13 30 -22 30 -8 0 -15 7 -15 15 0 8 -4 15
-9 15 -5 0 -12 13 -16 29 -3 16 -13 32 -21 35 -8 3 -14 17 -14 31 0 14 -4 25
-9 25 -5 0 -12 14 -16 30 -4 17 -13 30 -21 30 -8 0 -14 10 -14 25 0 14 -4 25
-9 25 -5 0 -12 14 -16 30 -4 17 -10 30 -15 30 -5 0 -12 20 -16 45 -3 25 -10
45 -15 45 -5 0 -12 18 -15 40 -4 24 -12 40 -20 40 -8 0 -14 9 -14 20 0 11 -4
20 -9 20 -5 0 -12 23 -16 50 -4 28 -10 50 -15 50 -4 0 -11 26 -15 58 -4 31
-11 60 -16 63 -5 3 -12 29 -16 57 -4 34 -10 52 -19 52 -9 0 -14 12 -14 35 0
19 -4 35 -9 35 -5 0 -12 37 -16 83 -4 45 -12 85 -19 89 -8 5 -12 165 -14 568
l-4 560 796 0 796 0 0 -1097z m1340 102 c0 -855 -2 -995 -14 -995 -8 0 -16 -8
-18 -17 -6 -28 3 -53 18 -53 9 0 14 -12 14 -35 0 -24 -5 -35 -15 -35 -8 0 -15
-7 -15 -15 0 -13 -77 -15 -630 -15 l-629 0 1 128 c1 70 3 119 6 110 4 -20 22
-24 22 -5 0 6 3 22 6 35 5 16 2 22 -9 22 -9 0 -18 -8 -20 -17 -3 -10 -5 411
-6 935 l-1 952 645 0 645 0 0 -995z m0 -1215 c0 -5 -6 -10 -14 -10 -9 0 -15
-26 -20 -97 -4 -54 -10 -100 -15 -103 -4 -3 -11 -23 -14 -44 -4 -22 -11 -42
-16 -45 -5 -4 -13 -19 -16 -34 -4 -15 -11 -27 -16 -27 -5 0 -9 -11 -9 -25 0
-14 -5 -25 -11 -25 -14 0 -79 -65 -79 -78 0 -13 -33 -47 -52 -55 -10 -3 -18
-11 -18 -17 0 -5 -7 -10 -15 -10 -8 0 -15 -7 -15 -15 0 -8 -14 -17 -35 -21
-19 -3 -35 -10 -35 -15 0 -5 -7 -9 -15 -9 -8 0 -15 -4 -15 -10 0 -5 -7 -10
-15 -10 -8 0 -15 -6 -15 -14 0 -13 -78 -26 -161 -26 -22 0 -39 -4 -39 -10 0
-5 -7 -10 -15 -10 -8 0 -15 5 -15 10 0 6 -21 10 -47 10 -86 0 -153 12 -153 26
0 8 -10 14 -24 14 -15 0 -27 7 -31 19 -4 12 -19 21 -45 25 -26 4 -40 12 -40
21 0 8 -5 15 -10 15 -6 0 -21 11 -34 25 -13 14 -28 25 -34 25 -6 0 -14 10 -18
22 -4 12 -20 35 -35 51 -16 16 -29 39 -29 53 0 17 -7 25 -25 30 -19 5 -26 15
-31 43 -4 20 -11 39 -16 42 -5 3 -11 23 -15 45 -3 21 -10 42 -15 45 -5 3 -12
49 -15 103 l-6 96 647 0 c424 0 646 -3 646 -10z m-530 -2520 c0 -5 16 -10 35
-10 23 0 35 -5 35 -14 0 -8 16 -16 40 -20 22 -3 40 -11 40 -16 0 -6 9 -10 20
-10 13 0 22 -9 26 -25 3 -14 12 -25 19 -25 8 0 20 -6 27 -13 7 -8 25 -17 40
-20 15 -4 30 -17 34 -29 4 -12 20 -33 35 -47 16 -14 29 -36 29 -48 0 -13 5
-23 11 -23 17 0 37 -25 45 -56 4 -16 11 -32 16 -35 5 -3 11 -23 15 -45 3 -21
10 -42 15 -45 5 -3 12 -49 15 -103 l6 -96 -633 0 -633 0 7 97 c4 54 10 100 15
103 4 3 11 23 14 44 4 22 10 42 15 45 5 3 13 21 17 39 3 17 11 32 17 32 15 0
48 40 48 58 0 8 11 25 24 37 13 12 27 32 31 43 4 14 15 22 28 22 13 0 30 9 40
20 9 11 24 20 32 20 8 0 15 7 15 15 0 8 9 15 20 15 11 0 20 5 20 10 0 6 5 10
11 10 6 0 17 7 25 15 9 8 31 15 50 15 24 0 34 5 34 15 0 8 9 15 20 15 11 0 20
5 20 10 0 6 50 10 130 10 80 0 130 -4 130 -10z"/>
<path d="M2440 5115 l0 -25 165 0 c152 0 202 -9 140 -24 -24 -6 -25 -10 -25
-76 0 -68 1 -70 28 -76 15 -4 30 -12 34 -18 4 -6 27 -10 52 -8 68 3 87 26 87
110 1 39 -4 68 -10 70 -6 2 -11 8 -11 13 0 5 66 9 150 9 l150 0 0 25 0 25
-380 0 -380 0 0 -25z m426 -51 c35 -9 42 -114 8 -114 -8 0 -14 -6 -14 -14 0
-33 -75 -27 -84 7 -8 30 -7 112 1 120 8 8 60 9 89 1z"/>
</g>
</svg>
