<?xml version="1.0" standalone="no"?>
<!DOCTYPE svg PUBLIC "-//W3C//DTD SVG 20010904//EN"
 "http://www.w3.org/TR/2001/REC-SVG-20010904/DTD/svg10.dtd">
<svg version="1.0" xmlns="http://www.w3.org/2000/svg"
 width="158.000000pt" height="112.000000pt" viewBox="0 0 158.000000 112.000000"
 preserveAspectRatio="xMidYMid meet">
<metadata>
Created by potrace 1.15, written by Peter Selinger 2001-2017
</metadata>
<g transform="translate(0.000000,112.000000) scale(0.100000,-0.100000)"
fill="#000000" stroke="none">
<path d="M0 560 l0 -560 790 0 790 0 0 560 0 560 -790 0 -790 0 0 -560z m202
5 l3 -545 -92 0 -93 0 0 545 0 545 90 0 90 0 2 -545z m1170 4 c2 -297 1 -543
-1 -545 -2 -2 -262 -4 -578 -4 l-573 0 0 545 0 545 575 0 575 0 2 -541z m188
-4 l0 -545 -85 0 -85 0 0 545 0 545 85 0 85 0 0 -545z"/>
<path d="M500 720 c0 -6 52 -10 135 -10 151 0 159 -5 105 -58 -37 -37 -39 -74
-5 -107 51 -51 135 -18 135 53 0 31 -29 72 -50 72 -5 0 -10 9 -10 20 0 19 7
20 140 20 87 0 140 4 140 10 0 6 -105 10 -295 10 -190 0 -295 -4 -295 -10z
m343 -78 c23 -21 22 -67 -4 -93 -46 -46 -133 5 -112 67 17 51 73 64 116 26z"/>
<path d="M390 652 c0 -38 5 -95 11 -127 12 -64 53 -155 70 -155 5 0 8 -4 5 -9
-7 -11 65 -78 117 -110 21 -13 49 -23 63 -23 14 0 21 -5 17 -11 -4 -6 2 -8 15
-5 12 4 25 2 28 -4 3 -5 44 -7 94 -5 101 4 167 30 243 98 46 40 124 155 113
166 -3 3 0 13 6 21 17 20 25 232 9 232 -8 0 -11 -27 -10 -87 2 -162 -65 -288
-190 -361 -25 -14 -48 -29 -51 -32 -9 -9 -43 -13 -140 -14 -89 -1 -99 1 -163
33 -73 36 -145 107 -175 171 -10 19 -19 37 -22 40 -8 8 -10 46 -10 153 0 79
-3 97 -15 97 -12 0 -15 -14 -15 -68z"/>
</g>
</svg>
