<?xml version="1.0" standalone="no"?>
<!DOCTYPE svg PUBLIC "-//W3C//DTD SVG 20010904//EN"
 "http://www.w3.org/TR/2001/REC-SVG-20010904/DTD/svg10.dtd">
<svg version="1.0" xmlns="http://www.w3.org/2000/svg"
 width="141.000000pt" height="110.000000pt" viewBox="0 0 141.000000 110.000000"
 preserveAspectRatio="xMidYMid meet">
<metadata>
Created by potrace 1.15, written by Peter Selinger 2001-2017
</metadata>
<g transform="translate(0.000000,110.000000) scale(0.100000,-0.100000)"
fill="#000000" stroke="none">
<path d="M0 550 l0 -550 705 0 705 0 0 550 c0 482 -2 550 -15 550 -13 0 -15
-67 -15 -545 l0 -545 -680 0 -680 0 0 135 c0 113 2 135 15 135 8 0 15 7 15 15
0 8 -7 15 -15 15 -11 0 -15 11 -15 40 0 29 4 40 15 40 8 0 15 7 15 15 0 8 -7
15 -15 15 -13 0 -15 44 -15 340 0 220 -4 340 -10 340 -7 0 -10 -190 -10 -550z"/>
</g>
</svg>
