<?xml version="1.0" standalone="no"?>
<!DOCTYPE svg PUBLIC "-//W3C//DTD SVG 20010904//EN"
 "http://www.w3.org/TR/2001/REC-SVG-20010904/DTD/svg10.dtd">
<svg version="1.0" xmlns="http://www.w3.org/2000/svg"
 width="140.000000pt" height="112.000000pt" viewBox="0 0 140.000000 112.000000"
 preserveAspectRatio="xMidYMid meet">
<metadata>
Created by potrace 1.15, written by Peter Selinger 2001-2017
</metadata>
<g transform="translate(0.000000,112.000000) scale(0.100000,-0.100000)"
fill="#000000" stroke="none">
<path d="M2 558 l-2 -558 700 0 700 0 0 555 c0 487 -2 555 -15 555 -13 0 -15
-45 -15 -345 0 -300 -2 -345 -15 -345 -8 0 -15 -7 -15 -15 0 -8 7 -15 15 -15
11 0 15 -11 15 -40 0 -29 -4 -40 -15 -40 -8 0 -15 -7 -15 -15 0 -8 7 -15 15
-15 13 0 15 -22 15 -135 l0 -135 -680 0 -680 0 -3 553 -2 552 -3 -557z"/>
</g>
</svg>
