<?xml version="1.0" standalone="no"?>
<!DOCTYPE svg PUBLIC "-//W3C//DTD SVG 20010904//EN"
 "http://www.w3.org/TR/2001/REC-SVG-20010904/DTD/svg10.dtd">
<svg version="1.0" xmlns="http://www.w3.org/2000/svg"
 width="295.000000pt" height="133.000000pt" viewBox="0 0 295.000000 133.000000"
 preserveAspectRatio="xMidYMid meet">
<metadata>
Created by potrace 1.15, written by Peter Selinger 2001-2017
</metadata>
<g transform="translate(0.000000,133.000000) scale(0.100000,-0.100000)"
fill="#000000" stroke="none">
<path d="M8 663 c1 -366 4 -664 7 -661 3 2 5 296 6 652 l1 648 26 -24 c91 -84
468 -292 544 -300 13 -2 28 -10 35 -18 7 -8 13 -11 13 -6 0 5 7 3 15 -4 8 -7
15 -9 15 -5 0 4 6 3 13 -3 7 -6 24 -13 37 -16 14 -3 65 -17 114 -31 49 -14 95
-24 102 -21 7 3 14 1 16 -3 2 -5 14 -12 27 -16 18 -6 22 -4 15 6 -6 11 -5 12
7 2 18 -15 69 -24 214 -38 87 -9 366 -9 460 -1 134 12 146 14 161 26 9 9 14 9
14 1 0 -7 8 -8 23 -2 12 5 27 9 32 10 64 10 85 15 85 21 0 5 10 6 23 3 16 -4
19 -3 11 6 -8 8 -35 6 -110 -9 -177 -37 -256 -45 -469 -45 -207 0 -280 7 -458
44 -55 12 -103 18 -108 15 -5 -3 -9 -1 -9 4 0 10 -51 25 -87 26 -13 0 -23 3
-23 7 0 4 -12 10 -27 15 -34 9 -33 9 -58 19 -131 53 -189 74 -196 69 -5 -3 -9
-1 -9 5 0 14 -100 62 -112 54 -6 -3 -8 -2 -5 4 3 5 -11 18 -31 27 -54 26 -292
186 -292 197 0 5 -6 9 -12 9 -10 0 -12 -139 -10 -667z"/>
<path d="M1112 1314 c50 -48 226 -104 327 -104 75 0 141 11 134 23 -3 6 -1 7
6 3 15 -10 73 3 66 15 -4 5 0 6 7 4 18 -7 120 43 113 55 -3 5 0 7 8 4 8 -3 18
-1 22 5 11 19 -23 12 -77 -17 -111 -58 -225 -79 -343 -63 -42 6 -82 8 -87 4
-6 -3 -8 -1 -5 4 4 6 -14 18 -41 28 -26 10 -57 24 -70 32 -12 7 -28 11 -34 7
-6 -4 -8 -3 -4 4 4 7 -1 10 -14 9 -16 -1 -17 -4 -8 -13z"/>
<path d="M2921 670 c3 -566 5 -660 18 -660 12 0 13 21 8 137 -4 75 -7 372 -7
660 0 372 -3 523 -11 523 -8 0 -10 -187 -8 -660z"/>
</g>
</svg>
