<?xml version="1.0" standalone="no"?>
<!DOCTYPE svg PUBLIC "-//W3C//DTD SVG 20010904//EN"
 "http://www.w3.org/TR/2001/REC-SVG-20010904/DTD/svg10.dtd">
<svg version="1.0" xmlns="http://www.w3.org/2000/svg"
 width="294.000000pt" height="101.000000pt" viewBox="0 0 294.000000 101.000000"
 preserveAspectRatio="xMidYMid meet">
<metadata>
Created by potrace 1.15, written by Peter Selinger 2001-2017
</metadata>
<g transform="translate(0.000000,101.000000) scale(0.100000,-0.100000)"
fill="#000000" stroke="none">
<path d="M554 932 c-332 -253 -540 -407 -546 -404 -5 1 -8 -117 -8 -263 0
-170 4 -265 10 -265 6 0 10 85 10 235 0 129 2 235 5 235 3 0 40 -24 83 -54
113 -79 232 -147 244 -139 6 3 8 2 5 -4 -7 -11 151 -86 164 -77 5 3 9 1 9 -4
0 -11 126 -62 225 -91 273 -79 468 -105 750 -97 110 2 243 12 295 21 149 24
401 93 495 135 22 10 74 32 115 49 94 40 270 139 270 152 0 6 4 7 10 4 5 -3
20 4 33 17 13 13 39 31 58 42 19 10 55 36 82 58 l47 39 0 -260 c0 -227 2 -261
15 -261 14 0 15 35 15 281 -1 235 -3 280 -15 275 -8 -3 -159 95 -347 224
l-333 230 -795 -1 -795 -1 -101 -76z m286 51 c1 -43 24 -153 41 -198 51 -136
179 -275 306 -331 168 -75 376 -70 534 11 100 52 204 159 254 264 30 62 65
184 65 228 l0 33 94 0 94 0 114 -77 c512 -350 548 -376 533 -393 -8 -9 -12
-20 -8 -24 5 -4 3 -6 -2 -5 -12 4 -75 -32 -75 -43 0 -4 -5 -8 -10 -8 -14 0
-90 -56 -85 -62 3 -3 -1 -5 -7 -5 -7 0 -69 -31 -136 -68 -68 -37 -166 -85
-218 -105 -52 -20 -92 -40 -89 -43 3 -4 3 -5 0 -3 -3 2 -41 -7 -83 -20 -42
-14 -117 -34 -167 -45 -49 -11 -97 -23 -105 -26 -8 -3 -23 -5 -34 -4 -10 2
-15 -2 -12 -7 4 -6 -2 -8 -14 -5 -11 3 -28 2 -37 -2 -10 -5 -21 -7 -25 -7 -4
1 -49 -3 -100 -8 -103 -11 -374 -15 -398 -6 -8 3 -51 7 -95 8 -44 2 -82 6 -85
9 -5 7 -211 51 -245 53 -11 0 -23 4 -26 9 -3 4 -20 9 -37 10 -18 1 -32 6 -32
11 0 4 -7 6 -15 2 -8 -3 -15 -1 -15 4 0 6 -6 10 -13 10 -27 0 -277 109 -375
163 -57 32 -107 55 -113 52 -5 -4 -8 -1 -7 7 2 7 -5 12 -14 12 -10 -1 -16 2
-15 6 3 11 -143 111 -152 105 -4 -2 -8 3 -8 11 0 8 68 65 150 127 83 62 209
156 281 210 72 53 138 103 146 110 52 43 65 47 152 47 49 0 88 -3 88 -7z
m1167 -57 c-3 -35 -15 -90 -26 -121 -11 -32 -18 -63 -14 -69 3 -6 2 -7 -2 -3
-5 4 -16 -6 -25 -22 -42 -82 -175 -203 -259 -237 -23 -9 -39 -20 -36 -24 3 -5
-5 -6 -17 -2 -12 3 -19 1 -15 -5 4 -5 -6 -8 -25 -5 -17 3 -28 1 -25 -4 10 -17
-157 -16 -238 2 -44 9 -88 17 -97 18 -9 0 -15 2 -12 5 2 2 -23 20 -55 38 -33
19 -84 56 -114 83 -30 27 -58 46 -62 42 -5 -4 -5 -2 -2 4 7 12 -56 127 -65
119 -2 -2 -4 4 -5 13 -2 25 -29 93 -34 87 -3 -3 -3 9 -1 26 3 18 1 29 -4 26
-5 -3 -7 17 -6 44 l4 49 570 0 571 0 -6 -64z"/>
</g>
</svg>
