<?xml version="1.0" standalone="no"?>
<!DOCTYPE svg PUBLIC "-//W3C//DTD SVG 20010904//EN"
 "http://www.w3.org/TR/2001/REC-SVG-20010904/DTD/svg10.dtd">
<svg version="1.0" xmlns="http://www.w3.org/2000/svg"
 width="159.000000pt" height="79.000000pt" viewBox="0 0 159.000000 79.000000"
 preserveAspectRatio="xMidYMid meet">
<metadata>
Created by potrace 1.15, written by Peter Selinger 2001-2017
</metadata>
<g transform="translate(0.000000,79.000000) scale(0.100000,-0.100000)"
fill="#000000" stroke="none">
<path d="M0 395 l0 -395 795 0 795 0 0 395 0 395 -795 0 -795 0 0 -395z m200
5 l0 -370 -90 0 -90 0 0 370 0 370 90 0 90 0 0 -370z m1172 66 c2 -167 0 -302
-4 -299 -5 2 -8 12 -8 21 0 10 -3 12 -9 6 -5 -5 -4 -35 5 -74 7 -36 14 -71 14
-77 0 -10 -122 -13 -575 -13 l-575 0 0 370 0 370 575 0 574 0 3 -304z m188
-66 l0 -370 -85 0 -85 0 0 370 0 370 85 0 85 0 0 -370z"/>
</g>
</svg>
