<?xml version="1.0" standalone="no"?>
<!DOCTYPE svg PUBLIC "-//W3C//DTD SVG 20010904//EN"
 "http://www.w3.org/TR/2001/REC-SVG-20010904/DTD/svg10.dtd">
<svg version="1.0" xmlns="http://www.w3.org/2000/svg"
 width="141.000000pt" height="134.000000pt" viewBox="0 0 141.000000 134.000000"
 preserveAspectRatio="xMidYMid meet">
<metadata>
Created by potrace 1.15, written by Peter Selinger 2001-2017
</metadata>
<g transform="translate(0.000000,134.000000) scale(0.100000,-0.100000)"
fill="#000000" stroke="none">
<path d="M0 952 l0 -388 280 -279 c154 -154 287 -281 296 -283 40 -9 349 272
476 433 118 151 246 358 299 485 12 30 26 59 31 64 4 6 8 18 8 28 0 10 5 18
10 18 6 0 10 58 10 155 l0 155 -705 0 -705 0 0 -388z m1381 221 c-2 -106 -7
-155 -17 -175 -8 -16 -12 -34 -8 -41 4 -7 3 -9 -1 -4 -11 9 -37 -51 -28 -66 4
-6 1 -7 -7 -2 -10 6 -12 4 -6 -11 4 -10 4 -15 0 -11 -10 10 -65 -93 -57 -106
4 -6 1 -7 -7 -2 -10 6 -12 4 -6 -11 4 -10 4 -15 0 -11 -11 10 -36 -31 -28 -46
4 -6 3 -9 -1 -4 -11 9 -86 -103 -78 -116 3 -6 1 -7 -5 -3 -11 7 -17 -7 -12
-29 1 -5 -1 -7 -5 -3 -8 8 -96 -98 -100 -121 -1 -9 -7 -15 -13 -14 -6 2 -25
-15 -42 -37 -18 -22 -28 -40 -24 -40 4 0 -3 -11 -16 -25 -13 -14 -26 -23 -29
-20 -7 7 -71 -57 -66 -65 3 -4 -2 -13 -10 -20 -8 -7 -15 -9 -15 -5 0 4 -18 -7
-40 -25 -22 -17 -39 -36 -37 -42 1 -6 -7 -12 -17 -14 -10 -1 -26 -11 -35 -20
-15 -17 -15 -17 4 -3 18 13 19 13 6 -3 -7 -10 -17 -15 -22 -12 -5 3 -25 -8
-44 -23 l-35 -29 -280 279 -280 280 0 198 c0 178 2 199 17 208 17 9 17 10 0
23 -16 12 -17 29 -15 153 2 106 6 139 16 138 6 -2 12 2 12 7 0 6 -4 10 -10 10
-5 0 -10 3 -10 8 0 4 304 6 677 5 l676 -3 -2 -147z"/>
</g>
</svg>
