<?xml version="1.0" standalone="no"?>
<!DOCTYPE svg PUBLIC "-//W3C//DTD SVG 20010904//EN"
 "http://www.w3.org/TR/2001/REC-SVG-20010904/DTD/svg10.dtd">
<svg version="1.0" xmlns="http://www.w3.org/2000/svg"
 width="142.000000pt" height="128.000000pt" viewBox="0 0 142.000000 128.000000"
 preserveAspectRatio="xMidYMid meet">
<metadata>
Created by potrace 1.15, written by Peter Selinger 2001-2017
</metadata>
<g transform="translate(0.000000,128.000000) scale(0.100000,-0.100000)"
fill="#000000" stroke="none">
<path d="M9 1133 c-1 -79 -2 -149 -3 -155 -1 -7 4 -12 11 -11 7 2 10 -3 7 -10
-6 -16 51 -140 119 -262 96 -171 210 -325 347 -469 107 -113 240 -227 260
-224 10 2 162 111 338 243 l321 240 0 395 1 395 -700 0 -700 0 -1 -142z m1371
115 c-23 -10 -24 -11 -5 -17 19 -6 20 -15 20 -149 0 -107 -3 -142 -12 -142 -7
0 -13 -7 -13 -15 0 -8 6 -15 14 -15 11 0 14 -36 15 -197 1 -109 -3 -204 -7
-211 -5 -7 -49 -43 -99 -80 -50 -37 -186 -139 -304 -228 -118 -88 -220 -164
-227 -168 -7 -4 -26 3 -45 16 -17 13 -34 22 -37 20 -3 -1 -5 2 -5 8 0 14 -41
41 -50 32 -5 -4 -5 -2 -2 4 3 6 -7 24 -23 39 -17 16 -30 25 -30 21 0 -5 -7 -3
-15 4 -8 7 -13 16 -10 20 2 4 -12 22 -31 41 -19 19 -61 64 -91 101 -31 37 -61
64 -67 61 -6 -3 -8 -3 -4 2 11 11 -11 47 -24 39 -7 -4 -8 -3 -4 4 8 14 -68
114 -79 104 -5 -4 -5 -1 -1 5 9 16 -17 56 -29 45 -5 -4 -5 -2 -2 4 4 6 -15 47
-41 91 -26 43 -65 118 -86 166 -21 47 -42 84 -46 82 -4 -2 -8 70 -9 160 l-2
165 688 -1 c499 0 681 -3 663 -11z"/>
</g>
</svg>
